<?xml version="1.0" encoding="UTF-8"?>
<svg version="1.1" xmlns="http://www.w3.org/2000/svg" width="512" height="512">
<path d="M0 0 C1.01086166 -0.00571014 2.02172333 -0.01142029 3.06321716 -0.01730347 C4.16621155 -0.01842133 5.26920593 -0.01953918 6.40562439 -0.02069092 C8.15491493 -0.02813828 8.15491493 -0.02813828 9.93954468 -0.03573608 C13.79925626 -0.0503484 17.6589268 -0.05715675 21.5186615 -0.06268311 C23.51970867 -0.06698067 25.52075585 -0.07127874 27.52180284 -0.07565761 C33.09385382 -0.08745949 38.66589485 -0.09500327 44.23795706 -0.09845281 C51.44580387 -0.10293978 58.65346163 -0.12052245 65.86125094 -0.1494534 C71.43416009 -0.17104687 77.00701593 -0.18115572 82.57996649 -0.18249393 C85.90841736 -0.18354304 89.23664931 -0.19091298 92.56506538 -0.20731354 C96.27378488 -0.22428961 99.98203851 -0.22251474 103.69078064 -0.21600342 C105.34830856 -0.22982559 105.34830856 -0.22982559 107.0393219 -0.243927 C108.04736374 -0.23835785 109.05540558 -0.2327887 110.09399414 -0.22705078 C110.97095475 -0.22851734 111.84791536 -0.2299839 112.75145054 -0.2314949 C115.50755187 0.22776602 116.35128657 0.89771697 117.98350525 3.14044189 C118.31350525 4.46044189 118.64350525 5.78044189 118.98350525 7.14044189 C129.21350525 7.14044189 139.44350525 7.14044189 149.98350525 7.14044189 C150.64350525 5.49044189 151.30350525 3.84044189 151.98350525 2.14044189 C154.87708606 -0.75313892 157.86472475 -0.20297725 161.745224 -0.23065186 C162.52807266 -0.23968033 163.31092133 -0.2487088 164.11749268 -0.25801086 C165.78446118 -0.27254883 167.4514872 -0.28140887 169.11851501 -0.28509521 C171.61688411 -0.29680445 174.11262539 -0.34578248 176.61045837 -0.39666748 C194.3801306 -0.57894097 207.90125163 4.2422688 221.323349 16.23028564 C235.409214 30.74872999 237.44514017 49.20125948 237.37168884 68.37652588 C237.37576263 70.17836829 237.38110901 71.9802082 237.38761902 73.78204346 C237.40120348 78.63956 237.39603063 83.49688369 237.38648176 88.35440326 C237.37883772 93.46074581 237.38594397 98.56707287 237.39064026 103.67341614 C237.39608456 112.24652034 237.3889416 120.81954679 237.37461853 129.39263916 C237.35829982 139.27370294 237.36358026 149.15458091 237.38009775 159.03564018 C237.39375672 167.55071639 237.39561063 176.06573699 237.38778174 184.58082062 C237.38312872 189.65268594 237.38241445 194.72446421 237.3923912 199.79632378 C237.4011229 204.56779709 237.39492689 209.33903329 237.37770844 214.11048126 C237.37377624 215.85100729 237.37482081 217.59155363 237.38149643 219.3320713 C237.44686161 238.12177633 234.70357293 256.03784445 220.98350525 270.14044189 C209.56516284 280.10286386 197.34254451 286.54025669 182.026474 286.02716064 C165.80932077 285.5189895 155.05013394 286.62508074 142.46788025 297.96075439 C141.72473572 298.6610376 140.98159119 299.3613208 140.21592712 300.08282471 C136.64481808 303.37430622 132.78368466 306.26535974 128.92100525 309.20294189 C127.45236458 310.34072688 125.98491831 311.48005524 124.5186615 312.62091064 C123.78405701 313.18987061 123.04945251 313.75883057 122.29258728 314.34503174 C120.68503353 315.59497362 119.08218134 316.8509759 117.48301697 318.1116333 C114.95557514 320.09847673 112.40939546 322.05883706 109.85850525 324.01544189 C109.08885437 324.62911621 108.31920349 325.24279053 107.52622986 325.87506104 C104.00663009 328.54077296 101.16774977 330.53096317 96.67881775 330.83575439 C92.98350525 330.14044189 92.98350525 330.14044189 90.77696228 328.16070557 C88.32925453 324.03865376 88.47550445 320.82427352 88.59288025 316.12091064 C88.59854004 315.26233963 88.60419983 314.40376862 88.61003113 313.5191803 C88.63234738 310.7881903 88.68253358 308.0585325 88.73350525 305.32794189 C88.75357645 303.47184111 88.77182614 301.61571967 88.78819275 299.75958252 C88.83219644 295.21935894 88.90119003 290.68012596 88.98350525 286.14044189 C87.85756958 286.14710373 86.73163391 286.15376556 85.57157898 286.16062927 C74.92085923 286.22164725 64.2701753 286.26651345 53.61931992 286.29587841 C48.14461183 286.31148311 42.67004572 286.33262584 37.19541931 286.36676025 C31.90452442 286.39953977 26.61376545 286.41733391 21.32277679 286.42507362 C19.3119264 286.43058392 17.3010828 286.44134351 15.29029083 286.45763206 C12.45707566 286.47965397 9.62441044 286.48239859 6.79112244 286.48101807 C5.56543549 286.49719681 5.56543549 286.49719681 4.31498718 286.51370239 C-2.82412715 286.47646267 -7.61746426 284.99019952 -15.01649475 283.14044189 C-15.01649475 295.35044189 -15.01649475 307.56044189 -15.01649475 320.14044189 C-9.93501038 320.10563721 -4.853526 320.07083252 0.38194275 320.03497314 C3.61763146 320.01962908 6.85327476 320.00518615 10.088974 319.99395752 C15.21520911 319.97608344 20.34128215 319.95502923 25.46739197 319.91412354 C29.60415539 319.8813225 33.7407448 319.86354554 37.87762833 319.85581017 C39.44914612 319.85030363 41.02065532 319.83955153 42.59209824 319.82325172 C56.23809175 319.68744793 67.3629957 321.13431165 77.7374115 330.76934814 C83.57830584 337.07868514 87.03692315 345.13647518 87.17637634 353.737854 C87.20047073 355.09462502 87.20047073 355.09462502 87.22505188 356.47880554 C87.26969298 360.59281441 87.31052974 364.7066675 87.33360291 368.82086182 C87.35019161 370.99056706 87.37751962 373.16021701 87.41563416 375.32965088 C87.47036735 378.46348307 87.49226759 381.59604009 87.50694275 384.73028564 C87.52961212 385.69812485 87.55228149 386.66596405 87.57563782 387.66313171 C87.56086652 392.36742444 87.51099393 394.45019231 84.57579041 398.29107666 C81.98350525 400.14044189 81.98350525 400.14044189 79.98350525 400.14044189 C80.00291054 404.50130529 80.05457449 408.86023405 80.13609314 413.22027588 C80.15928214 414.70323666 80.17367106 416.18636235 80.17906189 417.66949463 C80.18834637 419.80278368 80.22931345 421.93347663 80.276474 424.06622314 C80.29218445 425.34924316 80.3078949 426.63226318 80.32408142 427.9541626 C80.64985218 431.32206426 80.64985218 431.32206426 83.4651947 432.95758057 C84.29623718 433.3479248 85.12727966 433.73826904 85.98350525 434.14044189 C87.87242586 437.91828312 87.21180082 442.48404369 87.23350525 446.64044189 C87.26444275 448.07516846 87.26444275 448.07516846 87.29600525 449.53887939 C87.36009024 461.36256105 84.11143402 470.40942903 75.98350525 479.14044189 C69.22506511 484.3576661 62.54213016 487.17943965 53.97032166 487.31451416 C41.79663924 487.72774438 34.86331708 493.5612876 25.99327087 501.37237549 C13.22399317 512.60598933 13.22399317 512.60598933 7.48350525 512.95294189 C3.41645581 512.00880542 2.34752917 511.54771985 -0.01649475 508.14044189 C-0.509236 504.71140381 -0.39230809 501.34546969 -0.26649475 497.89044189 C-0.24844788 496.95458252 -0.230401 496.01872314 -0.21180725 495.05450439 C-0.16475148 492.74877174 -0.09903188 490.44513245 -0.01649475 488.14044189 C-0.5808876 488.14488312 -1.14528046 488.14932434 -1.72677612 488.15390015 C-7.64876246 488.19845628 -13.57070048 488.22844107 -19.49281311 488.25030518 C-21.6972599 488.26030706 -23.90169361 488.27391288 -26.10609436 488.2913208 C-29.29110459 488.31582642 -32.47593805 488.32698344 -35.661026 488.33575439 C-36.63231949 488.34607697 -37.60361298 488.35639954 -38.6043396 488.36703491 C-51.70406781 488.36913977 -62.0145464 485.89412181 -72.01649475 477.14044189 C-73.9657135 474.62481689 -73.9657135 474.62481689 -75.70399475 471.89044189 C-76.28536194 470.99841064 -76.86672913 470.10637939 -77.4657135 469.18731689 C-80.78921423 462.65751697 -81.30858439 456.33680857 -81.24354553 449.15411377 C-81.24383759 448.29463135 -81.24412964 447.43514893 -81.24443054 446.54962158 C-81.24304795 443.73603883 -81.2275376 440.92272783 -81.21180725 438.10919189 C-81.20807331 436.14764551 -81.20522814 434.18609726 -81.20323181 432.22454834 C-81.19562537 427.08220191 -81.17600273 421.93996992 -81.15382385 416.79766846 C-81.13330083 411.54215035 -81.12421633 406.2866136 -81.114151 401.03106689 C-81.09275387 390.73414184 -81.05865425 380.43730142 -81.01649475 370.14044189 C-83.52795411 372.01665444 -86.03796239 373.8947993 -88.54774475 375.77325439 C-89.59816956 376.55793091 -89.59816956 376.55793091 -90.66981506 377.35845947 C-95.33376418 380.85103569 -99.94250715 384.40602682 -104.51649475 388.01544189 C-105.09210648 388.46663895 -105.6677182 388.917836 -106.26077271 389.38270569 C-108.67489914 391.27738134 -111.06963007 393.18511012 -113.4188385 395.15997314 C-116.66464503 397.82016391 -118.49944358 399.04404252 -122.70399475 399.82794189 C-126.98062939 398.94033848 -128.30241765 397.52526706 -131.01649475 394.14044189 C-131.5841217 390.81890869 -131.5841217 390.81890869 -131.504776 387.08966064 C-131.49770126 386.43085403 -131.49062653 385.77204742 -131.4833374 385.09327698 C-131.45550454 383.00364155 -131.39280294 380.91675713 -131.32899475 378.82794189 C-131.3038968 377.40545476 -131.28108623 375.98292531 -131.26063538 374.56036377 C-131.20571921 371.08617328 -131.1195316 367.61357639 -131.01649475 364.14044189 C-132.37047112 364.15043465 -132.37047112 364.15043465 -133.75180054 364.16062927 C-142.2984251 364.2209802 -150.84497709 364.26653752 -159.39176655 364.29587841 C-163.78475418 364.31147044 -168.17756431 364.33258915 -172.57044983 364.36676025 C-176.81744292 364.39958615 -181.06426631 364.41734339 -185.31137657 364.42507362 C-186.92393346 364.43057576 -188.53648208 364.44131897 -190.14896584 364.45763206 C-206.60597381 364.61735672 -219.42968011 362.06893968 -231.68836975 350.56231689 C-241.37270184 340.4880117 -245.15700356 328.6954935 -245.17762756 314.91949463 C-245.18259247 314.11710358 -245.18755737 313.31471252 -245.19267273 312.48800659 C-245.20720542 309.85000739 -245.21407928 307.21206819 -245.21961975 304.57403564 C-245.22537587 302.73370869 -245.23113354 300.89338175 -245.2368927 299.05305481 C-245.24737549 295.20237958 -245.25323682 291.35172507 -245.25672913 287.5010376 C-245.26222663 282.56916967 -245.2862928 277.63757603 -245.31470108 272.70579433 C-245.33332398 268.90795588 -245.33853274 265.1101838 -245.340065 261.31230354 C-245.34308978 259.49384108 -245.3511124 257.67537973 -245.36425018 255.8569622 C-245.38131331 253.31509277 -245.37943063 250.77389816 -245.37294006 248.23199463 C-245.38215485 247.48328598 -245.39136963 246.73457733 -245.40086365 245.96318054 C-245.36559044 241.55128708 -244.95797962 238.51990023 -242.01649475 235.14044189 C-240.36649475 234.81044189 -238.71649475 234.48044189 -237.01649475 234.14044189 C-237.01649475 224.57044189 -237.01649475 215.00044189 -237.01649475 205.14044189 C-238.99649475 204.48044189 -240.97649475 203.82044189 -243.01649475 203.14044189 C-246.21636407 198.86396488 -245.35688371 193.23765455 -245.32899475 188.14044189 C-245.3240802 187.10186035 -245.31916565 186.06327881 -245.31410217 184.9932251 C-245.09122763 170.41265824 -241.40166561 157.96198567 -231.24305725 147.17559814 C-220.03007055 136.92653486 -207.02231175 134.5349872 -192.35560608 134.68634033 C-190.8072055 134.68747091 -189.25880278 134.68683085 -187.71040344 134.68457031 C-183.53950852 134.68343043 -179.36908097 134.70682093 -175.19829392 134.73486614 C-170.82747201 134.76000188 -166.45663743 134.76223134 -162.08575439 134.76696777 C-153.82347309 134.77936199 -145.56140543 134.81213507 -137.29921788 134.85236573 C-127.88683839 134.89719458 -118.47444828 134.91909834 -109.06198847 134.93914747 C-89.71336979 134.98087117 -70.3649495 135.05115352 -51.01649475 135.14044189 C-51.0253772 134.11108521 -51.03425964 133.08172852 -51.04341125 132.0211792 C-51.12498624 122.25470614 -51.18469266 112.48830344 -51.22374344 102.72156525 C-51.24449571 97.70202787 -51.27258352 92.68276854 -51.31825256 87.66339111 C-51.36215624 82.80688295 -51.38572442 77.95063988 -51.39600372 73.09394836 C-51.4033161 71.25384862 -51.41759178 69.4137611 -51.43941498 67.57377625 C-51.66532102 47.71192612 -48.63551764 30.37269764 -34.42274475 15.42559814 C-25.26510581 6.72881441 -12.87718571 0.04366083 0 0 Z " fill="#020101" transform="translate(260.01649475097656,-0.14044189453125)"/>
<path d="M0 0 C10.89 0 21.78 0 33 0 C33.33 1.98 33.66 3.96 34 6 C37.33376737 7.11125579 39.9214805 7.15797764 43.43359375 7.2109375 C44.72330078 7.23929688 46.01300781 7.26765625 47.34179688 7.296875 C50.03715617 7.3509948 52.73200746 7.39274166 55.42773438 7.4296875 C69.66066457 7.76806325 81.83580434 9.94726094 92.2890625 20.2578125 C102.45765481 32.10212789 103.73693903 43.70024604 103.63110352 58.61328125 C103.63625082 60.46748538 103.64353819 62.3216846 103.65278625 64.1758728 C103.67120512 69.18012712 103.65842202 74.18384447 103.63869596 79.18807602 C103.62222921 84.44350487 103.63113347 89.69890185 103.63621521 94.9543457 C103.64072722 103.77726754 103.6249217 112.59997676 103.59692383 121.42285156 C103.56487609 131.59993693 103.56489068 141.77663898 103.5821386 151.95375156 C103.59804349 161.77393425 103.59124465 171.59397741 103.57420158 181.41415405 C103.56735788 185.57973989 103.56833588 189.74521298 103.57574654 193.91079712 C103.58344993 198.82268474 103.57115173 203.73414004 103.54389763 208.64595413 C103.53705504 210.44052473 103.53687109 212.23513602 103.54411316 214.02970505 C103.5976941 229.04558398 101.79054224 240.97725476 90.9296875 252.125 C86.09482185 256.70717232 81.35189528 259.94047697 75 262 C73.37771484 262.54914063 73.37771484 262.54914063 71.72265625 263.109375 C66.98826701 264.27000719 62.33999425 264.04273881 57.49421692 263.95454407 C37.65267304 263.55768233 37.65267304 263.55768233 21.19921875 273.75 C20.66474121 274.30171875 20.13026367 274.8534375 19.57958984 275.421875 C17.10792577 277.89124696 14.37072577 279.8578395 11.5625 281.9375 C8.641686 284.18964966 5.72167386 286.44283123 2.80224609 288.69677734 C0.45331523 290.50855904 -1.89815552 292.31700268 -4.25 294.125 C-5.0020874 294.70628662 -5.7541748 295.28757324 -6.52905273 295.88647461 C-7.22587158 296.42151611 -7.92269043 296.95655762 -8.640625 297.5078125 C-9.26485352 297.98879395 -9.88908203 298.46977539 -10.53222656 298.96533203 C-12 300 -12 300 -13 300 C-13.0093457 299.08186523 -13.01869141 298.16373047 -13.02832031 297.21777344 C-13.07239931 293.80294722 -13.13403732 290.38936892 -13.20751953 286.97509766 C-13.23570088 285.49897804 -13.25692966 284.02270831 -13.27099609 282.54638672 C-13.29246698 280.42076943 -13.33913043 278.29695121 -13.390625 276.171875 C-13.41157227 274.8940918 -13.43251953 273.61630859 -13.45410156 272.29980469 C-13.76373374 269.03634018 -13.76373374 269.03634018 -15.43717957 266.82391357 C-19.32358313 264.0580295 -22.89077375 264.45980992 -27.55102539 264.51757812 C-28.5190509 264.51366562 -29.48707642 264.50975311 -30.48443604 264.50572205 C-32.58678092 264.49974419 -34.68916713 264.50292218 -36.79149055 264.5141449 C-40.12620922 264.53139772 -43.46006005 264.52390135 -46.79478455 264.5098877 C-55.08259628 264.4802222 -63.37024347 264.49338894 -71.65808105 264.50506592 C-78.65277184 264.5132944 -85.64708441 264.50521557 -92.64172173 264.47593689 C-95.9138218 264.46887694 -99.18524403 264.48548357 -102.45729065 264.50305176 C-113.69264975 264.50092175 -123.34652766 264.43564823 -133 258 C-133.29491978 255.10289455 -133.39572493 252.41742884 -133.36889648 249.51806641 C-133.37266296 248.63972137 -133.37642944 247.76137634 -133.38031006 246.85641479 C-133.38675849 244.94338677 -133.38639761 243.03032673 -133.38012505 241.11729813 C-133.37103151 238.08077877 -133.38122262 235.04487933 -133.39674377 232.00839233 C-133.43686767 223.37295562 -133.43805934 214.73756518 -133.43579102 206.10205078 C-133.43573963 200.82169199 -133.45505741 195.54166278 -133.48512459 190.2613945 C-133.49587984 187.285744 -133.48385428 184.3107426 -133.47129822 181.33511353 C-133.4969017 167.79368256 -134.83346549 155.7088146 -144 145 C-144.74420197 144.46027054 -145.48840393 143.92054108 -146.25515747 143.36445618 C-149.72428899 140.75758241 -152.44009725 138.25696186 -153.51811981 133.91146469 C-154.36195144 127.48633024 -154.15857378 121.00786295 -154.0546875 114.54296875 C-154.05058603 112.43223952 -154.04975546 110.32150164 -154.05203247 108.21076965 C-154.0472621 103.79469841 -154.0121363 99.38027915 -153.95361328 94.96459961 C-153.8800902 89.33246776 -153.86793141 83.70234372 -153.87696648 78.06980419 C-153.87950517 73.71219981 -153.85629742 69.35503315 -153.82483292 64.99755287 C-153.81152914 62.92255995 -153.80437695 60.84751739 -153.80373764 58.77248192 C-153.7709797 43.39280533 -152.34742839 30.5022666 -141 19 C-131.27232124 10.6192306 -120.94515805 7.38864043 -108.2421875 7.4699707 C-106.56451546 7.45687363 -106.56451546 7.45687363 -104.85295105 7.44351196 C-101.19346658 7.41931274 -97.53455377 7.42253479 -93.875 7.42578125 C-91.31957037 7.41332674 -88.76414929 7.39898993 -86.20874023 7.38285828 C-80.19192538 7.34881051 -74.17530361 7.3314599 -68.1584177 7.3230831 C-56.72459553 7.30625608 -45.29092567 7.24686896 -33.85723877 7.19130516 C-30.1019187 7.17594251 -26.34665456 7.16876664 -22.59130859 7.16316223 C-20.30175753 7.15614908 -18.01220673 7.1490484 -15.72265625 7.1418457 C-14.15175484 7.14263878 -14.15175484 7.14263878 -12.54911804 7.14344788 C-11.59326309 7.1394397 -10.63740814 7.13543152 -9.65258789 7.13130188 C-8.82159073 7.1300446 -7.99059357 7.12878733 -7.13441467 7.12749195 C-4.81197353 7.08126874 -4.81197353 7.08126874 -2 6 C-1.34 4.02 -0.68 2.04 0 0 Z " fill="#F5F1EF" transform="translate(378,7)"/>
<path d="M0 0 C1.25302917 -0.00997513 2.50605835 -0.01995026 3.79705811 -0.03022766 C5.17300402 -0.03112333 6.54895011 -0.03178697 7.92489624 -0.03224182 C9.38412904 -0.03986939 10.84335784 -0.04829791 12.30258179 -0.0574646 C16.25745938 -0.07936302 20.21225966 -0.0882027 24.16719103 -0.09329104 C26.64278477 -0.09694142 29.11835847 -0.10318513 31.59394455 -0.11029243 C40.24430983 -0.13477486 48.89461529 -0.14783533 57.54501343 -0.15138245 C65.58506545 -0.15501243 73.62473452 -0.18487218 81.66466963 -0.22678703 C88.58467928 -0.26158745 95.50456266 -0.2769326 102.42465913 -0.27762848 C106.54989473 -0.27841826 110.67474028 -0.28701722 114.7998848 -0.31562614 C118.68577433 -0.34197345 122.57095516 -0.34392053 126.45689392 -0.3279705 C127.87414991 -0.32616889 129.29144822 -0.33272896 130.70861435 -0.34878922 C141.80586551 -0.46676825 151.65019579 1.20883619 160.10214233 8.89915466 C168.16047421 17.89588588 169.39370616 27.32174832 169.23226929 39.01707458 C169.23085577 40.46695405 169.23165671 41.91683708 169.23448181 43.36671448 C169.23590558 47.26915192 169.20668686 51.17080747 169.17161202 55.07306457 C169.14017306 59.16359765 169.13740406 63.25415233 169.13148499 67.3447876 C169.11599771 75.07589819 169.07503931 82.80665164 169.02473754 90.53760558 C168.96868389 99.34538128 168.94131746 108.15317481 168.91626036 116.96108472 C168.86411828 135.0656432 168.77627658 153.16987013 168.66464233 171.27415466 C167.69023193 171.29602844 167.69023193 171.29602844 166.69613647 171.31834412 C163.70592293 171.39357129 160.71673636 171.48998079 157.72714233 171.58665466 C156.7055603 171.60921326 155.68397827 171.63177185 154.63143921 171.65501404 C143.71319555 172.03872228 135.59333229 174.55450738 127.66464233 182.27415466 C124.33216852 186.31813705 121.99462731 190.21904267 120.41464233 195.20384216 C118.70819011 199.86752938 115.97687876 202.09418674 112.03964233 204.96165466 C111.3902771 205.45641296 110.74091187 205.95117126 110.0718689 206.46092224 C108.68022092 207.51920276 107.28288451 208.57003737 105.88046265 209.61399841 C103.56516457 211.34868626 101.2809725 213.11887308 99.00057983 214.89915466 C97.47238354 216.08723312 95.94374762 217.27474635 94.41464233 218.46165466 C93.68809448 219.02650574 92.96154663 219.59135681 92.21298218 220.17332458 C91.53187378 220.6951532 90.85076538 221.21698181 90.14901733 221.75462341 C89.54799194 222.21763855 88.94696655 222.68065369 88.32772827 223.15769958 C86.66464233 224.27415466 86.66464233 224.27415466 83.66464233 225.27415466 C83.65005981 224.65894958 83.63547729 224.04374451 83.62045288 223.40989685 C83.54583656 220.61402613 83.44922254 217.81933179 83.35214233 215.02415466 C83.32958374 214.05606873 83.30702515 213.08798279 83.28378296 212.09056091 C83.24833374 211.1559906 83.21288452 210.22142029 83.17636108 209.25852966 C83.13708496 207.97027283 83.13708496 207.97027283 83.09701538 206.6559906 C82.54412412 203.61024972 81.9144863 202.42783653 79.66464233 200.27415466 C76.90741851 199.88380699 74.54534711 199.75053677 71.78768921 199.79173279 C70.98562042 199.78782028 70.18355164 199.78390778 69.35717773 199.77987671 C67.613864 199.77389584 65.87050043 199.77708234 64.12721252 199.78829956 C61.35959843 199.805553 58.59303008 199.79805567 55.82540894 199.78404236 C48.94498228 199.75437415 42.06475344 199.76752535 35.18429565 199.77922058 C29.38094558 199.78746092 23.57805089 199.77931703 17.77476501 199.75009155 C15.06324157 199.74304716 12.35254129 199.75961991 9.64108276 199.77720642 C-1.57578178 199.77461713 -11.97486255 199.18689338 -20.71035767 191.21165466 C-21.48121704 190.5400531 -22.25207642 189.86845154 -23.04629517 189.17649841 C-30.68016305 179.49737923 -31.03469905 170.09813067 -30.92694283 158.27597046 C-30.90130875 155.44259396 -30.90638718 152.61065631 -30.9188385 149.77720642 C-30.93946206 143.77602654 -30.9199313 137.77530429 -30.89785767 131.77415466 C-30.87673999 124.78864983 -30.87211876 117.8036099 -30.8983593 110.81811523 C-30.90172356 108.02639648 -30.88050062 105.23556741 -30.85795593 102.44395447 C-30.86046572 100.74086817 -30.86402428 99.03778298 -30.86880493 97.33470154 C-30.85591934 96.55860535 -30.84303375 95.78250916 -30.82975769 94.9828949 C-30.84980198 90.73220491 -30.84980198 90.73220491 -33.17701721 87.33287048 C-35.42843331 86.16874968 -35.42843331 86.16874968 -38.33535767 85.27415466 C-38.33535767 75.04415466 -38.33535767 64.81415466 -38.33535767 54.27415466 C-36.68535767 53.61415466 -35.03535767 52.95415466 -33.33535767 52.27415466 C-31.06222887 48.86446146 -31.0954807 47.64571296 -31.09707642 43.64524841 C-31.08096313 42.52698669 -31.06484985 41.40872498 -31.04824829 40.25657654 C-31.03151745 37.92069315 -31.02603577 35.58469806 -31.03262329 33.24876404 C-30.86129955 23.5827889 -28.32658356 15.26538055 -21.33535767 8.27415466 C-14.58633035 3.11541539 -8.6601082 0.0371176 0 0 Z " fill="#4DD3E8" transform="translate(61.335357666015625,149.72584533691406)"/>
<path d="M0 0 C7.77368326 4.75058422 10.96603981 13.60025525 13.375 22.0625 C16.24415689 36.04241883 14.76413619 49.28422761 8.375 62.0625 C9.57511719 62.04155273 10.77523437 62.02060547 12.01171875 61.99902344 C16.49190193 61.92626813 20.97203355 61.88057168 25.45263672 61.84277344 C27.38664552 61.82273859 29.32059435 61.79550271 31.25439453 61.76074219 C34.04474743 61.71186429 36.83429501 61.68944981 39.625 61.671875 C40.908302 61.64090729 40.908302 61.64090729 42.2175293 61.60931396 C49.03163035 61.60680411 54.24161684 63.35126144 59.43359375 67.84375 C59.88863281 68.4109375 60.34367188 68.978125 60.8125 69.5625 C61.28558594 70.1296875 61.75867188 70.696875 62.24609375 71.28125 C64.87973464 75.43675258 64.53443866 80.05399858 64.55200195 84.82519531 C64.55857315 85.60296829 64.56514435 86.38074127 64.57191467 87.18208313 C64.59159656 89.75159815 64.60329911 92.32105486 64.61328125 94.890625 C64.61735678 95.77060905 64.6214323 96.65059311 64.62563133 97.55724335 C64.64647072 102.21540592 64.66078141 106.87353922 64.67016602 111.53173828 C64.68122347 116.331179 64.71562173 121.13015522 64.75533772 125.92943192 C64.78154142 129.63046096 64.78986119 133.33137995 64.79344749 137.03249359 C64.79830407 138.80104457 64.80989148 140.56959094 64.82848549 142.33805084 C64.85295667 144.81981244 64.85189776 147.30038008 64.8449707 149.78222656 C64.86418579 150.86577171 64.86418579 150.86577171 64.88378906 151.97120667 C64.81825556 158.45265584 62.66173492 163.71224467 58.125 168.375 C52.02727841 172.1167837 46.44023252 173.51235679 39.34521484 173.46655273 C38.58624908 173.47341599 37.82728333 173.48027924 37.0453186 173.48735046 C34.55866282 173.50551408 32.07264483 173.50179362 29.5859375 173.49609375 C27.8372884 173.5006629 26.08864109 173.50597064 24.33999634 173.51197815 C20.68020321 173.52089062 17.02062846 173.51851021 13.36083984 173.50854492 C8.70775722 173.49710009 4.05543862 173.51720698 -0.59754372 173.54646206 C-4.20963206 173.56496152 -7.82154231 173.56450378 -11.43366623 173.55882454 C-13.14699749 173.55867277 -14.86034196 173.56459555 -16.57362747 173.57711601 C-29.91714081 173.66085218 -41.41048269 171.87893682 -53.625 166.0625 C-54.02529922 166.54916641 -54.42559845 167.03583282 -54.83802795 167.5372467 C-57.10730619 169.47416794 -58.26258193 169.44699894 -61.21655273 169.46655273 C-62.60830971 169.48557899 -62.60830971 169.48557899 -64.02818298 169.50498962 C-65.52823631 169.50058617 -65.52823631 169.50058617 -67.05859375 169.49609375 C-68.60281761 169.50395653 -68.60281761 169.50395653 -70.17823792 169.51197815 C-72.35620217 169.51840374 -74.5342011 169.51705445 -76.7121582 169.50854492 C-80.04636425 169.50004115 -83.3788542 169.52878008 -86.71289062 169.56054688 C-88.82812449 169.56215909 -90.94336138 169.56158097 -93.05859375 169.55859375 C-94.05660507 169.56982773 -95.05461639 169.58106171 -96.08287048 169.59263611 C-97.01386063 169.58325516 -97.94485077 169.57387421 -98.90405273 169.56420898 C-99.72107162 169.56404282 -100.53809052 169.56387665 -101.37986755 169.56370544 C-104.68020551 168.82693495 -105.71711523 167.87142816 -107.625 165.0625 C-108.20991435 161.92839967 -108.16097719 158.84032308 -108.12670898 155.65991211 C-108.13211197 154.70829697 -108.13751495 153.75668182 -108.14308167 152.77622986 C-108.15559004 149.63045156 -108.13906478 146.4855846 -108.12109375 143.33984375 C-108.12124868 141.15556287 -108.12273658 138.9712817 -108.12550354 136.78700256 C-108.12688844 132.20968471 -108.11431296 127.63267986 -108.09155273 123.05541992 C-108.06315129 117.18161476 -108.06590888 111.30832914 -108.07864285 105.43448544 C-108.08558962 100.92468306 -108.07782245 96.41500129 -108.06538582 91.90521431 C-108.06086276 89.73902409 -108.06054194 87.57282097 -108.06445122 85.40662956 C-108.06735401 82.382713 -108.05090144 79.35951877 -108.02905273 76.33569336 C-108.03355438 75.43639099 -108.03805603 74.53708862 -108.04269409 73.61053467 C-108.03278946 72.78760422 -108.02288483 71.96467377 -108.01268005 71.11680603 C-108.01025016 70.40208098 -108.00782026 69.68735594 -108.00531673 68.95097256 C-107.51070963 66.49498821 -106.5694408 65.59529749 -104.625 64.0625 C-102.46888733 63.69500732 -102.46888733 63.69500732 -99.94165039 63.70605469 C-98.51986229 63.70155304 -98.51986229 63.70155304 -97.0693512 63.69696045 C-96.04744186 63.70930725 -95.02553253 63.72165405 -93.97265625 63.734375 C-92.92097763 63.73624817 -91.86929901 63.73812134 -90.78575134 63.74005127 C-88.56066725 63.74677648 -86.33559507 63.76070018 -84.1105957 63.78125 C-80.70447803 63.812345 -77.29882353 63.82221523 -73.89257812 63.828125 C-71.73176519 63.83729758 -69.57095697 63.84767416 -67.41015625 63.859375 C-65.8803286 63.86574982 -65.8803286 63.86574982 -64.31959534 63.87225342 C-63.36858444 63.88186096 -62.41757355 63.89146851 -61.43774414 63.90136719 C-60.18556847 63.91160919 -60.18556847 63.91160919 -58.90809631 63.92205811 C-56.69239291 64.05835441 -54.75335615 64.44883376 -52.625 65.0625 C-45.67080231 57.6143593 -38.94381978 50.06633839 -32.625 42.0625 C-32.12097656 41.45019531 -31.61695313 40.83789062 -31.09765625 40.20703125 C-25.81414334 33.44606184 -23.55198393 25.87634141 -23.1875 17.375 C-22.87532739 11.4011515 -21.66985137 7.51183651 -17.625 3.0625 C-11.96450216 -1.96905363 -6.93265014 -1.79292676 0 0 Z " fill="#030303" transform="translate(374.625,55.9375)"/>
<path d="M0 0 C1.05145706 -0.0071553 2.10291412 -0.01431061 3.18623352 -0.02168274 C6.64348503 -0.03851793 10.0994304 -0.01919603 13.55664062 0.00219727 C15.96984972 0.0013681 18.38305876 -0.00109308 20.79626465 -0.00511169 C25.84660909 -0.00796618 30.89650918 0.00669825 35.94677734 0.03417969 C42.40971407 0.068261 48.87185649 0.06224044 55.33483124 0.04351711 C60.31580181 0.03293208 65.29658861 0.04189878 70.27754211 0.05690193 C72.66009474 0.06207311 75.04266665 0.06161492 77.42521667 0.05535698 C80.75915579 0.04988687 84.09197038 0.07033922 87.42578125 0.09765625 C88.40368118 0.09113037 89.38158112 0.08460449 90.38911438 0.07788086 C97.68900471 0.17922199 103.2734479 1.69166079 108.52539062 6.94360352 C112.79630895 13.7454364 113.65330086 18.95692846 113.65429688 26.86938477 C113.67410866 28.31235176 113.67410866 28.31235176 113.69432068 29.7844696 C113.73501801 32.83754466 113.75684793 35.89031943 113.77539062 38.94360352 C113.79916369 42.01465078 113.82719979 45.08541487 113.86717224 48.15629578 C113.89157126 50.06261799 113.9063956 51.96909127 113.91078186 53.87556458 C113.92606178 55.16281685 113.92606178 55.16281685 113.94165039 56.47607422 C113.94806297 57.61022514 113.94806297 57.61022514 113.9546051 58.76728821 C114.05584715 60.87629392 114.05584715 60.87629392 116.21289062 62.63110352 C117.86289062 63.29110352 119.51289063 63.95110352 121.21289062 64.63110352 C121.21289062 74.86110352 121.21289062 85.09110352 121.21289062 95.63110352 C118.24289062 97.11610352 118.24289062 97.11610352 115.21289062 98.63110352 C113.67083663 100.17315751 114.06809216 101.64218585 114.03710938 103.78735352 C114.01326172 104.64586914 113.98941406 105.50438477 113.96484375 106.38891602 C113.92261479 108.18556652 113.89097248 109.98250424 113.87109375 111.77954102 C113.64816858 118.76798577 112.37421837 125.2775358 107.43432617 130.51782227 C104.17217883 133.45657704 100.67149729 136.45955257 96.14501953 136.77539062 C95.41718262 136.73679932 94.6893457 136.69820801 93.93945312 136.65844727 C82.41627574 136.39980536 75.67349506 137.8281584 67.15820312 145.77172852 C66.67383789 146.24416992 66.18947266 146.71661133 65.69042969 147.20336914 C59.03847202 153.63110352 59.03847202 153.63110352 56.21289062 153.63110352 C56.18710937 152.7274707 56.16132813 151.82383789 56.13476562 150.89282227 C56.07804687 149.71333008 56.02132812 148.53383789 55.96289062 147.31860352 C55.91648437 146.1468457 55.87007813 144.97508789 55.82226562 143.76782227 C55.51369598 140.62203213 55.51369598 140.62203213 53.54621887 138.95811462 C50.60097932 137.28309714 48.65110794 137.25912107 45.27026367 137.26220703 C44.07189377 137.25532364 42.87352386 137.24844025 41.63883972 137.24134827 C40.34714371 137.24750656 39.05544769 137.25366486 37.72460938 137.26000977 C36.37945015 137.2533128 35.0342991 137.24473366 33.68916321 137.23435974 C27.98720704 137.19434809 22.2853252 137.19305093 16.58325195 137.1953125 C13.09008224 137.19536381 9.59741218 137.17608995 6.10437965 137.14597893 C4.13753752 137.13521729 2.17061287 137.14728713 0.20378113 137.1598053 C-7.87988763 137.09263994 -12.69681163 136.41992513 -18.74804688 130.81469727 C-19.2146875 130.23848633 -19.68132812 129.66227539 -20.16210938 129.06860352 C-20.64421875 128.48981445 -21.12632812 127.91102539 -21.62304688 127.31469727 C-23.68240327 124.33623214 -23.91629775 121.6924378 -23.94100952 118.18611145 C-23.94960999 117.27640594 -23.95821045 116.36670044 -23.96707153 115.4294281 C-23.97133148 114.43355179 -23.97559143 113.43767548 -23.97998047 112.41162109 C-23.98815796 111.36089417 -23.99633545 110.31016724 -24.00476074 109.2276001 C-24.02961199 105.74361746 -24.04613084 102.25967558 -24.06054688 98.77563477 C-24.06587055 97.5858219 -24.07119423 96.39600903 -24.07667923 95.17014122 C-24.1034106 88.87157205 -24.12278493 82.5730227 -24.13720703 76.27441406 C-24.15384785 69.77211753 -24.19862175 63.27032852 -24.24957848 56.76822376 C-24.28325318 51.76585821 -24.29478482 46.76361304 -24.30043411 41.76114464 C-24.30714667 39.3645916 -24.32236871 36.96804648 -24.34632492 34.57160378 C-24.37798014 31.21316954 -24.37801186 27.85610316 -24.37060547 24.49755859 C-24.3870108 23.51180344 -24.40341614 22.52604828 -24.4203186 21.51042175 C-24.36189676 15.02241416 -23.23465202 10.49169611 -18.78710938 5.63110352 C-13.05851123 0.40488591 -7.50787473 -0.08976744 0 0 Z " fill="#F98F83" transform="translate(218.787109375,335.368896484375)"/>
<path d="M0 0 C5.04955333 -0.12496991 10.09817809 -0.21497363 15.14892578 -0.2746582 C16.86165069 -0.29957583 18.57427181 -0.33352329 20.28662109 -0.37719727 C32.77501129 -0.68739983 43.65316753 -0.2035018 53.4375 8.625 C61.40958773 17.7749495 62.73063157 26.93401823 62.56762695 38.74291992 C62.56621344 40.19279938 62.56701438 41.64268242 62.56983948 43.09255981 C62.57126324 46.99499726 62.54204452 50.89665281 62.50696969 54.7989099 C62.47553073 58.88944299 62.47276173 62.97999766 62.46684265 67.07063293 C62.45135537 74.80174353 62.41039698 82.53249698 62.3600952 90.26345092 C62.30404156 99.07122662 62.27667513 107.87902015 62.25161803 116.68693006 C62.19947595 134.79148853 62.11163424 152.89571546 62 171 C61.0255896 171.02187378 61.0255896 171.02187378 60.03149414 171.04418945 C57.0412806 171.11941662 54.05209403 171.21582612 51.0625 171.3125 C50.04091797 171.33505859 49.01933594 171.35761719 47.96679688 171.38085938 C36.9771845 171.76707578 29.04604801 174.3437799 21 182 C19.15721237 184.25960865 17.5975498 186.55375187 16 189 C15.67 189 15.34 189 15 189 C15 168.21 15 147.42 15 126 C4.11 126 -6.78 126 -18 126 C-18.33 129.96 -18.66 133.92 -19 138 C-19.39032913 141.02318609 -19.8068116 143.99939591 -20.3125 147 C-20.41755859 147.72316406 -20.52261719 148.44632813 -20.63085938 149.19140625 C-21.38298826 153.65485961 -22.28700469 156.30275941 -26 159 C-29.5 159.5625 -29.5 159.5625 -33 159 C-35.63375225 156.43105009 -36.91122886 154.89771382 -37.27734375 151.1953125 C-37.16519531 150.18210937 -37.05304688 149.16890625 -36.9375 148.125 C-36.81375 146.99964844 -36.69 145.87429688 -36.5625 144.71484375 C-35.60869624 138.41576475 -34.33925991 132.23047001 -33 126 C-38.94 126 -44.88 126 -51 126 C-51.268125 128.35125 -51.53625 130.7025 -51.8125 133.125 C-52.50122419 138.7209563 -53.3159224 144.27404501 -54.375 149.8125 C-54.58898437 150.93269531 -54.80296875 152.05289063 -55.0234375 153.20703125 C-56.14329573 156.40982578 -57.05499207 157.38962113 -60 159 C-63.58110811 159.52224493 -65.29889257 159.44280469 -68.375 157.5 C-72.30136022 151.45944582 -69.35123292 142.61921532 -68 136 C-67.71382812 134.55173828 -67.71382812 134.55173828 -67.421875 133.07421875 C-66.95464658 130.71471522 -66.48056564 128.35681661 -66 126 C-67.05127075 126.0314209 -67.05127075 126.0314209 -68.1237793 126.06347656 C-71.31153919 126.14683048 -74.49906952 126.19872139 -77.6875 126.25 C-78.79029297 126.28351563 -79.89308594 126.31703125 -81.02929688 126.3515625 C-89.17288512 126.44997444 -89.17288512 126.44997444 -93.23828125 124.23828125 C-95.10924393 121.8612045 -95.63774099 120.91614887 -95.5 117.9375 C-95 114 -95 114 -93.88354492 112.2722168 C-91.05855332 110.36411165 -88.74105004 110.662781 -85.36328125 110.70703125 C-84.06455078 110.71669922 -82.76582031 110.72636719 -81.42773438 110.73632812 C-80.05598361 110.76139415 -78.68423882 110.78678899 -77.3125 110.8125 C-75.92905076 110.8275498 -74.54558599 110.8412377 -73.16210938 110.85351562 C-69.77434793 110.88892777 -66.38736861 110.93831946 -63 111 C-63.04125 109.906875 -63.0825 108.81375 -63.125 107.6875 C-63.14420838 102.33796618 -62.07503069 97.22157765 -61 92 C-62.3317627 92.0314209 -62.3317627 92.0314209 -63.69042969 92.06347656 C-66.99294455 92.13175677 -70.2947067 92.1818487 -73.59765625 92.21972656 C-75.02551121 92.23980982 -76.45328425 92.26708252 -77.88085938 92.30175781 C-79.93640368 92.35042669 -81.99085855 92.37299967 -84.046875 92.390625 C-85.28276367 92.41157227 -86.51865234 92.43251953 -87.79199219 92.45410156 C-91 92 -91 92 -93.40332031 90.19433594 C-95.73130623 86.99495712 -95.55078456 84.8554919 -95 81 C-93.44433594 78.80566406 -93.44433594 78.80566406 -91 77 C-88.31827524 76.65040594 -86.06062042 76.53076226 -83.390625 76.609375 C-82.66381531 76.61503479 -81.93700562 76.62069458 -81.18817139 76.62652588 C-78.87476755 76.64885447 -76.5629328 76.69903952 -74.25 76.75 C-72.67840784 76.77006977 -71.10679132 76.78831971 -69.53515625 76.8046875 C-65.68950283 76.84870707 -61.84501711 76.91770625 -58 77 C-57.94303955 76.38616455 -57.8860791 75.7723291 -57.82739258 75.13989258 C-57.26673211 69.29507696 -56.58743096 63.48981729 -55.6875 57.6875 C-55.58244141 56.91599609 -55.47738281 56.14449219 -55.36914062 55.34960938 C-54.62075182 50.58527627 -53.67614559 47.40210565 -50 44 C-47.05506618 43.14082545 -45.13867651 43.6014379 -42 44 C-39.96420212 45.50930835 -39.11792728 46.36114393 -38.65429688 48.87280273 C-38.84066613 55.01239888 -39.56253935 60.99434252 -40.5 67.0625 C-40.64308594 68.02349609 -40.78617188 68.98449219 -40.93359375 69.97460938 C-41.28324634 72.31728172 -41.64079803 74.65877285 -42 77 C-36.06 77 -30.12 77 -24 77 C-23.896875 75.185 -23.79375 73.37 -23.6875 71.5 C-23.26025345 66.09414429 -22.60529629 60.77829987 -21.6875 55.4375 C-21.58203857 54.75945312 -21.47657715 54.08140625 -21.36791992 53.3828125 C-20.58305401 49.08783686 -19.53732805 46.62193817 -16 44 C-12.05983987 43.43711998 -9.94217804 43.39603972 -6.5625 45.5625 C-3.2994832 50.65280621 -5.22916854 56.90351746 -6.4375 62.5 C-7.47503239 67.35184229 -8.29593035 72.07151247 -9 77 C-1.08 77 6.84 77 15 77 C14.92577287 69.77693249 14.84273133 62.55505125 14.73754883 55.33251953 C14.70442549 52.87880736 14.67635494 50.4250213 14.65356445 47.97119141 C14.61978671 44.43099672 14.56745833 40.89147151 14.51171875 37.3515625 C14.50532883 36.26573883 14.4989389 35.17991516 14.49235535 34.06118774 C14.33088201 25.57461585 13.18885884 17.31203017 8.125 10.25 C7.65320313 9.57453125 7.18140625 8.8990625 6.6953125 8.203125 C5.29674258 6.38562861 3.8648382 4.62077942 2.39404297 2.86230469 C1.60400879 1.91774414 0.81397461 0.97318359 0 0 Z " fill="#61A5FB" transform="translate(168,150)"/>
<path d="M0 0 C0.66 0 1.32 0 2 0 C2.64910154 1.58199631 3.29414694 3.16565724 3.9375 4.75 C4.47697266 6.07257813 4.47697266 6.07257813 5.02734375 7.421875 C10.34742768 21.52330229 5.95551887 33.89935415 0.14672852 46.91137695 C-1.58807682 50.84922468 -2.6738234 53.66827812 -2 58 C0.03107924 60.56585254 1.23411073 61.84385862 4.47964478 62.50552368 C5.40626923 62.50837372 6.33289368 62.51122375 7.28759766 62.51416016 C8.34194 62.5274234 9.39628235 62.54068665 10.48257446 62.55435181 C12.18116104 62.5467836 12.18116104 62.5467836 13.9140625 62.5390625 C15.08004974 62.55085541 16.24603699 62.56264832 17.44735718 62.57479858 C21.17337379 62.61013002 24.89882936 62.61923788 28.625 62.625 C32.35814377 62.64131032 36.09103484 62.6632704 39.82406616 62.69662476 C42.14775061 62.71634579 44.47155136 62.72557992 46.7953186 62.72354126 C47.84335663 62.73050018 48.89139465 62.73745911 49.97119141 62.74462891 C50.89622467 62.74588776 51.82125793 62.74714661 52.77432251 62.7484436 C55 63 55 63 57 65 C57.20341747 67.45810694 57.28324453 69.80405463 57.2746582 72.26367188 C57.27976913 73.01177628 57.28488007 73.75988068 57.29014587 74.53065491 C57.3040765 77.0101007 57.30308271 79.48926966 57.30078125 81.96875 C57.30466595 83.68746037 57.30900015 85.40616978 57.31376648 87.12487793 C57.32123592 90.72960521 57.32093196 94.33423456 57.31567383 97.93896484 C57.3098747 102.56636569 57.32681722 107.19336687 57.3500185 111.8207016 C57.36472401 115.37052772 57.36563197 118.92025685 57.36250877 122.47010803 C57.36302348 124.1766082 57.36828902 125.88311359 57.37832069 127.58958435 C57.39060814 129.97209946 57.38394079 132.35382637 57.37231445 134.73632812 C57.37995819 135.44600235 57.38760193 136.15567657 57.39547729 136.88685608 C57.3742218 138.84973145 57.3742218 138.84973145 57 142 C53.40976438 144.39349041 50.82066233 144.29588686 46.67382812 144.29052734 C45.93028076 144.29724457 45.1867334 144.30396179 44.4206543 144.31088257 C41.95745176 144.32990735 39.4945215 144.33379022 37.03125 144.3359375 C35.31310922 144.34236675 33.59496954 144.34909521 31.87683105 144.35610962 C28.26877307 144.3680967 24.66081087 144.37178942 21.05273438 144.37060547 C16.45417233 144.37040321 11.8562348 144.39760172 7.25782013 144.43214989 C3.70419565 144.45452449 0.15071831 144.45843965 -3.40296936 144.45738602 C-5.09646234 144.4597301 -6.78996011 144.46848565 -8.48338318 144.48405075 C-20.07311318 144.58052438 -30.37821085 143.80788926 -40.125 136.8125 C-40.84945313 136.30332031 -41.57390625 135.79414063 -42.3203125 135.26953125 C-44 134 -44 134 -45 133 C-45.13045141 131.20230867 -45.19128811 129.39952237 -45.22460938 127.59741211 C-45.24712769 126.44208481 -45.269646 125.28675751 -45.29284668 124.09642029 C-45.36366559 118.78315532 -45.4216039 113.47007253 -45.45996094 108.15649414 C-45.48216989 105.35573446 -45.52382634 102.55632148 -45.58300781 99.75610352 C-45.66811317 95.72131194 -45.69529078 91.6879719 -45.71875 87.65234375 C-45.75174194 86.40621811 -45.78473389 85.16009247 -45.81872559 83.87620544 C-45.8049789 77.87939265 -45.62882221 73.9474968 -41.60107422 69.30810547 C-40.42322498 68.18139256 -39.22498054 67.07528298 -38 66 C-37.22914063 65.14792969 -36.45828125 64.29585938 -35.6640625 63.41796875 C-34.65472656 62.31388672 -34.65472656 62.31388672 -33.625 61.1875 C-29.67509664 56.8158273 -25.94561281 52.30071979 -22.2578125 47.70703125 C-20.06622129 45.07939681 -17.75084516 42.64790914 -15.375 40.1875 C-10.13661407 34.46288911 -7.11040985 28.0565808 -4 21 C-3.63003906 20.20851563 -3.26007813 19.41703125 -2.87890625 18.6015625 C-1.66592497 15.01113792 -1.28449562 11.4434475 -0.875 7.6875 C-0.78863281 6.94693359 -0.70226562 6.20636719 -0.61328125 5.44335938 C-0.40265295 3.62961565 -0.20047014 1.81489457 0 0 Z " fill="#FDD16B" transform="translate(367,70)"/>
<path d="M0 0 C16.02274107 -0.4274842 29.94030442 -0.64867486 43 10 C52.45363026 19.32457046 56.48438605 29.89297184 56.66018379 42.95217896 C56.66676312 45.50616506 56.6492283 48.05936002 56.63110352 50.61328125 C56.63625082 52.46748538 56.64353819 54.3216846 56.65278625 56.1758728 C56.67120512 61.18012712 56.65842202 66.18384447 56.63869596 71.18807602 C56.62222921 76.44350487 56.63113347 81.69890185 56.63621521 86.9543457 C56.64072722 95.77726754 56.6249217 104.59997676 56.59692383 113.42285156 C56.56487609 123.59993693 56.56489068 133.77663898 56.5821386 143.95375156 C56.59804349 153.77393425 56.59124465 163.59397741 56.57420158 173.41415405 C56.56735788 177.57973989 56.56833588 181.74521298 56.57574654 185.91079712 C56.58344993 190.82268474 56.57115173 195.73414004 56.54389763 200.64595413 C56.53705504 202.44052473 56.53687109 204.23513602 56.54411316 206.02970505 C56.5976941 221.04558398 54.79054224 232.97725476 43.9296875 244.125 C39.09482185 248.70717232 34.35189528 251.94047697 28 254 C26.37771484 254.54140625 26.37771484 254.54140625 24.72265625 255.09375 C17.99168431 256.73116195 10.88235718 256.20776944 4 256.125 C2.54297489 256.11495155 1.08594309 256.10582899 -0.37109375 256.09765625 C-3.91420329 256.07578711 -7.45705812 256.04135977 -11 256 C-11 255.67 -11 255.34 -11 255 C-10.2265625 255.00902344 -9.453125 255.01804687 -8.65625 255.02734375 C-1.7372272 254.83039137 2.36496309 254.01608847 7.26171875 249.0078125 C7.83535156 248.34523438 8.40898437 247.68265625 9 247 C9.54269531 246.39929688 10.08539063 245.79859375 10.64453125 245.1796875 C17.97947077 236.3034822 21.15438496 225.7225034 21.14044189 214.38023376 C21.14341302 213.62080414 21.14638414 212.86137451 21.1494453 212.07893187 C21.15810576 209.53820572 21.15963831 206.99752684 21.16113281 204.45678711 C21.16576298 202.63317769 21.1707879 200.80956924 21.17617798 198.98596191 C21.18928751 194.03313125 21.19574447 189.08031413 21.20018864 184.12746882 C21.20312256 181.0299243 21.20722804 177.93238345 21.21169281 174.83484077 C21.22536583 165.1342845 21.23503264 155.43373665 21.2388947 145.7331714 C21.24337083 134.55279804 21.26089889 123.37254721 21.2898953 112.19221109 C21.3115527 103.5397625 21.3216012 94.88734827 21.32293582 86.23487288 C21.32398122 81.07239128 21.32983216 75.91002489 21.34775543 70.74757195 C21.36430569 65.88595213 21.36635801 61.02453326 21.35761642 56.1628952 C21.35684968 54.38605013 21.36114051 52.60919395 21.37107468 50.83237648 C21.4551026 34.85625791 19.75234954 19.09800688 8 7 C5.90567623 5.3544599 3.78313673 3.77346177 1.609375 2.234375 C1.07828125 1.82703125 0.5471875 1.4196875 0 1 C0 0.67 0 0.34 0 0 Z " fill="#EAE0DB" transform="translate(425,15)"/>
<path d="M0 0 C5.50749928 0.25468205 5.50749928 0.25468205 7.69335938 1.87524414 C11.23973985 6.66844156 8.70930739 15.347278 7.8984375 20.84960938 C7.75535156 21.77580078 7.61226562 22.70199219 7.46484375 23.65625 C7.32175781 24.61724609 7.17867187 25.57824219 7.03125 26.56835938 C6.68159741 28.91103172 6.32404572 31.25252285 5.96484375 33.59375 C11.90484375 33.59375 17.84484375 33.59375 23.96484375 33.59375 C24.06796875 31.77875 24.17109375 29.96375 24.27734375 28.09375 C24.7045903 22.68789429 25.35954746 17.37204987 26.27734375 12.03125 C26.38280518 11.35320312 26.4882666 10.67515625 26.59692383 9.9765625 C27.38178974 5.68158686 28.4275157 3.21568817 31.96484375 0.59375 C35.90500388 0.03086998 38.02266571 -0.01021028 41.40234375 2.15625 C44.66536055 7.24655621 42.73567521 13.49726746 41.52734375 19.09375 C40.49446401 23.92383496 39.61424686 28.70115962 38.96484375 33.59375 C40.0161145 33.5623291 40.0161145 33.5623291 41.08862305 33.53027344 C44.27638294 33.44691952 47.46391327 33.39502861 50.65234375 33.34375 C51.75513672 33.31023437 52.85792969 33.27671875 53.99414062 33.2421875 C62.15452441 33.14357259 62.15452441 33.14357259 66.19921875 35.390625 C67.96484375 37.59375 67.96484375 37.59375 68.52734375 41.09375 C67.87053861 45.18053754 67.20717229 46.12562918 63.96484375 48.59375 C60.94042969 49.04785156 60.94042969 49.04785156 57.44921875 48.984375 C56.19882813 48.97148437 54.9484375 48.95859375 53.66015625 48.9453125 C51.70722656 48.89503906 51.70722656 48.89503906 49.71484375 48.84375 C48.39742188 48.82570312 47.08 48.80765625 45.72265625 48.7890625 C42.46974219 48.74191882 39.21720158 48.67017616 35.96484375 48.59375 C34.97484375 54.86375 33.98484375 61.13375 32.96484375 67.59375 C36.25195312 67.52414062 36.25195312 67.52414062 39.60546875 67.453125 C41.73353765 67.42190866 43.86158082 67.39763299 45.98974609 67.37402344 C47.46609965 67.35393699 48.94237394 67.32666199 50.41845703 67.29199219 C52.54349337 67.24333816 54.66747609 67.22075327 56.79296875 67.203125 C58.70964355 67.1717041 58.70964355 67.1717041 60.66503906 67.13964844 C63.96484375 67.59375 63.96484375 67.59375 66.38183594 69.43066406 C67.96484375 71.59375 67.96484375 71.59375 68.46484375 74.59375 C67.8592993 78.22701668 66.80895225 79.33519325 63.96484375 81.59375 C61.00673899 83.07280238 58.01012825 82.71565903 54.76953125 82.69140625 C54.06208771 82.6899913 53.35464417 82.68857635 52.62576294 82.68711853 C50.36374706 82.681516 48.10182977 82.66896318 45.83984375 82.65625 C44.3072931 82.65123532 42.77474089 82.64667236 41.2421875 82.64257812 C37.48303487 82.63154577 33.72395603 82.61427952 29.96484375 82.59375 C29.87940308 83.73650391 29.87940308 83.73650391 29.79223633 84.90234375 C29.30004477 91.178888 28.69871705 97.38488299 27.65234375 103.59375 C27.49475586 104.67849609 27.49475586 104.67849609 27.33398438 105.78515625 C26.58185549 110.24860961 25.67783906 112.89650941 21.96484375 115.59375 C18.46484375 116.15625 18.46484375 116.15625 14.96484375 115.59375 C12.3310915 113.02480009 11.05361489 111.49146382 10.6875 107.7890625 C10.79964844 106.77585937 10.91179687 105.76265625 11.02734375 104.71875 C11.21296875 103.03072266 11.21296875 103.03072266 11.40234375 101.30859375 C12.35614751 95.00951475 13.62558384 88.82422001 14.96484375 82.59375 C9.02484375 82.59375 3.08484375 82.59375 -3.03515625 82.59375 C-3.30328125 84.945 -3.57140625 87.29625 -3.84765625 89.71875 C-4.53638044 95.3147063 -5.35107865 100.86779501 -6.41015625 106.40625 C-6.62414062 107.52644531 -6.838125 108.64664063 -7.05859375 109.80078125 C-8.17845198 113.00357578 -9.09014832 113.98337113 -12.03515625 115.59375 C-15.61626436 116.11599493 -17.33404882 116.03655469 -20.41015625 114.09375 C-24.33651647 108.05319582 -21.38638917 99.21296532 -20.03515625 92.59375 C-19.844375 91.62824219 -19.65359375 90.66273438 -19.45703125 89.66796875 C-18.98980283 87.30846522 -18.51572189 84.95056661 -18.03515625 82.59375 C-19.086427 82.6251709 -19.086427 82.6251709 -20.15893555 82.65722656 C-23.34669544 82.74058048 -26.53422577 82.79247139 -29.72265625 82.84375 C-30.82544922 82.87726563 -31.92824219 82.91078125 -33.06445312 82.9453125 C-41.20804137 83.04372444 -41.20804137 83.04372444 -45.2734375 80.83203125 C-47.14440018 78.4549545 -47.67289724 77.50989887 -47.53515625 74.53125 C-47.03515625 70.59375 -47.03515625 70.59375 -45.91870117 68.8659668 C-43.09370957 66.95786165 -40.77620629 67.256531 -37.3984375 67.30078125 C-36.09970703 67.31044922 -34.80097656 67.32011719 -33.46289062 67.33007812 C-32.09113986 67.35514415 -30.71939507 67.38053899 -29.34765625 67.40625 C-27.96420701 67.4212998 -26.58074224 67.4349877 -25.19726562 67.44726562 C-21.80950418 67.48267777 -18.42252486 67.53206946 -15.03515625 67.59375 C-15.07640625 66.500625 -15.11765625 65.4075 -15.16015625 64.28125 C-15.17936463 58.93171618 -14.11018694 53.81532765 -13.03515625 48.59375 C-13.92299805 48.61469727 -14.81083984 48.63564453 -15.72558594 48.65722656 C-19.0281008 48.72550677 -22.32986295 48.7755987 -25.6328125 48.81347656 C-27.06066746 48.83355982 -28.4884405 48.86083252 -29.91601562 48.89550781 C-31.97155993 48.94417669 -34.0260148 48.96674967 -36.08203125 48.984375 C-37.93586426 49.0157959 -37.93586426 49.0157959 -39.82714844 49.04785156 C-43.03515625 48.59375 -43.03515625 48.59375 -45.43847656 46.78808594 C-47.76646248 43.58870712 -47.58594081 41.4492419 -47.03515625 37.59375 C-45.47949219 35.39941406 -45.47949219 35.39941406 -43.03515625 33.59375 C-40.35343149 33.24415594 -38.09577667 33.12451226 -35.42578125 33.203125 C-34.69897156 33.20878479 -33.97216187 33.21444458 -33.22332764 33.22027588 C-30.9099238 33.24260447 -28.59808905 33.29278952 -26.28515625 33.34375 C-24.71356409 33.36381977 -23.14194757 33.38206971 -21.5703125 33.3984375 C-17.72465908 33.44245707 -13.88017336 33.51145625 -10.03515625 33.59375 C-9.9781958 32.97991455 -9.92123535 32.3660791 -9.86254883 31.73364258 C-9.30188836 25.88882696 -8.62258721 20.08356729 -7.72265625 14.28125 C-7.56506836 13.12399414 -7.56506836 13.12399414 -7.40429688 11.94335938 C-6.6135743 6.90952443 -5.53307171 1.61425509 0 0 Z " fill="#010404" transform="translate(120.03515625,193.40625)"/>
<path d="M0 0 C0.69738281 0.36609375 1.39476562 0.7321875 2.11328125 1.109375 C4.04936846 2.12997194 4.04936846 2.12997194 6.6875 1.25 C7.43 0.79625 8.1725 0.3425 8.9375 -0.125 C15.76559593 -3.30908618 23.10128836 -3.35839192 30.2421875 -1.0625 C36.94605112 2.01358705 41.3210725 5.44156581 44.9375 11.875 C45.55625 12.90625 46.175 13.9375 46.8125 15 C49.69880644 22.49065242 48.9058531 32.42977592 45.97265625 39.796875 C38.52231575 54.75378499 23.54821128 66.92685152 7.9375 72.875 C1.46039381 73.90694573 -2.47542641 71.44071191 -7.75 68.0625 C-8.93094238 67.3202417 -8.93094238 67.3202417 -10.13574219 66.56298828 C-20.14925194 60.100615 -29.37050283 52.55997715 -35.0625 41.875 C-35.39894531 41.27816406 -35.73539063 40.68132812 -36.08203125 40.06640625 C-39.44036534 32.93569688 -39.27742946 23.65921375 -37.37109375 16.15234375 C-34.26956204 8.58668271 -29.06353087 2.48870156 -21.75 -1.2421875 C-14.59305807 -3.5931597 -6.76640295 -3.3097764 0 0 Z " fill="#030202" transform="translate(258.0625,371.125)"/>
<path d="M0 0 C4.49977884 -0.11690073 8.99916287 -0.18748837 13.5 -0.25 C15.40265625 -0.30027344 15.40265625 -0.30027344 17.34375 -0.3515625 C24.74280177 -0.42863596 29.75962828 -0.10253629 36 4 C42.51784354 10.51784354 43.44030184 17.46469235 43.44140625 26.23828125 C43.45461411 27.20025925 43.46782196 28.16223724 43.48143005 29.15336609 C43.52212739 32.20644114 43.5439573 35.25921591 43.5625 38.3125 C43.58627306 41.38354727 43.61430916 44.45431136 43.65428162 47.52519226 C43.67868063 49.43151448 43.69350498 51.33798775 43.69789124 53.24446106 C43.70807785 54.10262924 43.71826447 54.96079742 43.72875977 55.8449707 C43.73517235 56.97912163 43.73517235 56.97912163 43.74171448 58.13618469 C43.84295652 60.24519041 43.84295652 60.24519041 46 62 C47.65 62.66 49.3 63.32 51 64 C51 74.23 51 84.46 51 95 C49.02 95.99 47.04 96.98 45 98 C43.457946 99.542054 43.85520153 101.01108234 43.82421875 103.15625 C43.78844727 104.44402344 43.78844727 104.44402344 43.75195312 105.7578125 C43.70972416 107.55446301 43.67808185 109.35140073 43.65820312 111.1484375 C43.43527796 118.13688226 42.16132774 124.64643229 37.22143555 129.88671875 C33.9592882 132.82547353 30.45860667 135.82844905 25.93212891 136.14428711 C25.20429199 136.1056958 24.47645508 136.06710449 23.7265625 136.02734375 C12.13146307 135.76825451 5.4112644 137.24602843 -3.15234375 145.23828125 C-4.09207031 146.14964844 -5.03179687 147.06101562 -6 148 C-10.67661692 152 -10.67661692 152 -13 152 C-13 149.03 -13 146.06 -13 143 C-12.27554687 142.64808594 -11.55109375 142.29617188 -10.8046875 141.93359375 C-2.06132112 137.46864799 2.91728944 133.57267674 6.35494995 124.2348938 C7.39369771 120.63596231 7.36357949 117.19760609 7.30078125 113.4765625 C7.30842308 111.86197507 7.31691293 110.24739147 7.32617188 108.6328125 C7.32396717 106.12924851 7.31251615 103.62646437 7.28491211 101.12304688 C7.19603622 90.73580525 7.43483285 83.53798467 14 75 C17.18456009 67.47285796 17.51623417 58.17196948 14.7265625 50.49609375 C11.94241113 44.84528428 11.94241113 44.84528428 8 40 C7.76049805 37.453125 7.76049805 37.453125 7.76171875 34.25 C7.74560547 33.08339844 7.72949219 31.91679687 7.71289062 30.71484375 C7.69617749 28.26958282 7.69067094 25.8242154 7.69726562 23.37890625 C7.53592163 13.87522459 5.21091223 7.81636835 0 0 Z " fill="#FC6BB3" transform="translate(289,336)"/>
<path d="M0 0 C8.25 0 16.5 0 25 0 C25 24.75 25 49.5 25 75 C16.75 75 8.5 75 0 75 C0 50.25 0 25.5 0 0 Z " fill="#8EE6F3" transform="translate(282,135)"/>
<path d="M0 0 C2.98093817 1.81448411 4.5609201 3.2472916 6.3125 6.25 C8.04511446 8.37935014 8.04511446 8.37935014 11.75 8.75 C14.68739391 8.64279584 15.69287773 8.30712227 17.796875 6.203125 C18.35890625 5.47609375 18.9209375 4.7490625 19.5 4 C22.47341368 0.16443213 22.47341368 0.16443213 25.0390625 -0.63671875 C30.86996161 -0.77866948 34.09601325 1.35330876 38.3125 5 C40.90345991 9.60615095 40.70425704 13.83786851 40 19 C37.19295443 28.55059882 29.18256568 34.09120676 21.375 39.5 C20.72942139 39.95810059 20.08384277 40.41620117 19.41870117 40.88818359 C16.67694668 42.72261266 14.71781136 44.00850739 11.36328125 43.96875 C1.35101291 39.86454744 -11.12054276 31.46894581 -15.4453125 21.171875 C-16.96440073 15.22389571 -16.98150814 9.92917118 -14.1875 4.4375 C-9.85713148 -0.38776778 -6.1791993 -0.8920675 0 0 Z " fill="#F3EFED" transform="translate(251,384)"/>
<path d="M0 0 C8.91 0 17.82 0 27 0 C27.020625 2.949375 27.04125 5.89875 27.0625 8.9375 C27.071604 9.86812256 27.08070801 10.79874512 27.09008789 11.75756836 C27.09258545 12.48596924 27.09508301 13.21437012 27.09765625 13.96484375 C27.10551147 15.08814087 27.10551147 15.08814087 27.11352539 16.23413086 C27 18 27 18 26 19 C23.85441173 19.08775605 21.70595579 19.10695219 19.55859375 19.09765625 C18.25341797 19.09443359 16.94824219 19.09121094 15.60351562 19.08789062 C14.2148431 19.07953401 12.82617123 19.07106905 11.4375 19.0625 C10.04492344 19.05748666 8.65234519 19.05292347 7.25976562 19.04882812 C3.8398013 19.03699434 0.41992156 19.0205088 -3 19 C-2.88353525 17.33271516 -2.75630239 15.666182 -2.625 14 C-2.55539063 13.071875 -2.48578125 12.14375 -2.4140625 11.1875 C-1.92261596 7.40428889 -0.92527281 3.70109122 0 0 Z " fill="#4ACADE" transform="translate(156,242)"/>
<path d="M0 0 C1.36061781 0.0301495 2.72130026 0.05751652 4.08203125 0.08203125 C7.38968925 0.15240695 10.69399708 0.25083387 14 0.375 C10.4732328 4.03238821 6.77385968 7.26852698 2.75 10.375 C2.15807861 10.83559814 1.56615723 11.29619629 0.95629883 11.77075195 C-1.02578909 13.30987228 -3.01265582 14.84267377 -5 16.375 C-5.75684082 16.96071777 -6.51368164 17.54643555 -7.29345703 18.14990234 C-9.63051096 19.95753906 -11.9707999 21.76088731 -14.3125 23.5625 C-15.05983398 24.13935547 -15.80716797 24.71621094 -16.57714844 25.31054688 C-17.26969727 25.84099609 -17.96224609 26.37144531 -18.67578125 26.91796875 C-19.6025769 27.6298938 -19.6025769 27.6298938 -20.5480957 28.35620117 C-22 29.375 -22 29.375 -23 29.375 C-23.23344349 25.66773774 -23.37476346 21.9623688 -23.5 18.25 C-23.56703125 17.20328125 -23.6340625 16.1565625 -23.703125 15.078125 C-23.80478709 11.06247245 -23.87729805 7.78233229 -21.7109375 4.30712891 C-15.61053455 -1.27335334 -7.75913542 -0.29638225 0 0 Z " fill="#E8DFDA" transform="translate(388,277.625)"/>
<path d="M0 0 C0.74886475 0.00523682 1.49772949 0.01047363 2.26928711 0.01586914 C3.07817383 0.0190918 3.88706055 0.02231445 4.72045898 0.02563477 C5.5705957 0.03401367 6.42073242 0.04239258 7.29663086 0.05102539 C8.15063477 0.05553711 9.00463867 0.06004883 9.88452148 0.06469727 C12.00108749 0.07652166 14.11761771 0.0944577 16.23413086 0.11352539 C15.92211412 2.15526597 15.60949517 4.19691452 15.29663086 6.23852539 C15.0355957 7.94395508 15.0355957 7.94395508 14.76928711 9.68383789 C14.27831279 12.83037406 13.75767764 15.97224469 13.23413086 19.11352539 C7.29413086 19.11352539 1.35413086 19.11352539 -4.76586914 19.11352539 C-4.52873115 16.97928347 -4.29113253 14.84509157 -4.05102539 12.71118164 C-3.86217244 10.99080891 -3.68235775 9.269418 -3.51196289 7.54711914 C-3.43075195 6.7440332 -3.34954102 5.94094727 -3.26586914 5.11352539 C-3.15758789 3.99977539 -3.15758789 3.99977539 -3.04711914 2.86352539 C-2.66750489 0.50148119 -2.40329159 0.15450444 0 0 Z " fill="#4ACADE" transform="translate(124.765869140625,241.886474609375)"/>
</svg>
